<svg xmlns="http://www.w3.org/2000/svg" width="18" height="18" viewBox="0 0 18 18" fill="none">
  <path d="M2.6998 2.55005H7.1998C7.28265 2.55005 7.3498 2.61721 7.3498 2.70005V5.40005C7.3498 5.48289 7.28265 5.55005 7.1998 5.55005H2.6998C2.61696 5.55005 2.5498 5.48289 2.5498 5.40005V2.70005C2.5498 2.61721 2.61696 2.55005 2.6998 2.55005Z" stroke="#ADB4CC" stroke-width="1.5" stroke-linecap="round" stroke-linejoin="round"/>
  <path d="M10.8004 2.55005H15.3004C15.3832 2.55005 15.4504 2.61721 15.4504 2.70005V8.10005C15.4504 8.18289 15.3832 8.25005 15.3004 8.25005H10.8004C10.7175 8.25005 10.6504 8.18289 10.6504 8.10005V2.70005C10.6504 2.61721 10.7175 2.55005 10.8004 2.55005Z" stroke="#ADB4CC" stroke-width="1.5" stroke-linecap="round" stroke-linejoin="round"/>
  <path d="M2.6998 8.84998H7.1998C7.28265 8.84998 7.3498 8.91713 7.3498 8.99998V15.3C7.3498 15.3828 7.28265 15.45 7.1998 15.45H2.6998C2.61696 15.45 2.5498 15.3828 2.5498 15.3V8.99998C2.5498 8.91713 2.61696 8.84998 2.6998 8.84998Z" stroke="#ADB4CC" stroke-width="1.5" stroke-linecap="round" stroke-linejoin="round"/>
  <path d="M10.8004 11.55H15.3004C15.3832 11.55 15.4504 11.6172 15.4504 11.7V15.3C15.4504 15.3829 15.3832 15.45 15.3004 15.45H10.8004C10.7175 15.45 10.6504 15.3829 10.6504 15.3V11.7C10.6504 11.6172 10.7175 11.55 10.8004 11.55Z" stroke="#ADB4CC" stroke-width="1.5" stroke-linecap="round" stroke-linejoin="round"/>
</svg>