<svg width="18" height="18" viewBox="0 0 18 18" fill="none" xmlns="http://www.w3.org/2000/svg">
	<path d="M2.25 8.24963H3.03411M3.03411 8.24963H14.9659M3.03411 8.24963C3.04246 8.21104 3.05233 8.17277 3.06372 8.13497C3.09091 8.04475 3.12932 7.958 3.20654 7.78424L4.36624 5.17493C4.59552 4.65903 4.71036 4.40094 4.89157 4.21179C5.05176 4.0446 5.24823 3.91689 5.46606 3.83841C5.7125 3.74963 5.99502 3.74963 6.55957 3.74963H11.4402C12.0047 3.74963 12.2875 3.74963 12.534 3.83841C12.7518 3.91689 12.948 4.0446 13.1082 4.21179C13.2892 4.40081 13.4039 4.65869 13.6328 5.17389L14.7972 7.79373C14.8716 7.96119 14.9095 8.04641 14.9362 8.13497C14.9476 8.17277 14.9575 8.21104 14.9659 8.24963M3.03411 8.24963C3.02476 8.29286 3.01732 8.3365 3.01179 8.38037C3 8.47385 3 8.56889 3 8.75903V12.7496M14.9659 8.24963H15.75M14.9659 8.24963C14.9753 8.29286 14.9827 8.3365 14.9883 8.38037C15 8.47329 15 8.56777 15 8.75561V12.7497M15 12.7497L12 12.7497M15 12.7497V13.4995C15 14.328 14.3284 14.9996 13.5 14.9996C12.6716 14.9996 12 14.3281 12 13.4996V12.7497M12 12.7497L6 12.7496M6 12.7496H3M6 12.7496V13.4996C6 14.3281 5.32843 14.9996 4.5 14.9996C3.67157 14.9996 3 14.3281 3 13.4996V12.7496" stroke="#30E49D" stroke-width="1.5" stroke-linecap="round" stroke-linejoin="round"/>
</svg>
