<svg xmlns="http://www.w3.org/2000/svg" width="22" height="18" viewBox="0 0 22 18" fill="none">
  <path d="M9.64112 2.73908C9.64112 3.83761 8.75058 4.72815 7.65204 4.72815C6.5535 4.72815 5.66296 3.83761 5.66296 2.73908C5.66296 1.64054 6.5535 0.75 7.65204 0.75C8.75058 0.75 9.64112 1.64054 9.64112 2.73908Z" stroke="#ADB4CC" stroke-width="1.5"/>
  <path d="M15.902 15.261C15.902 16.3596 15.0114 17.2501 13.9129 17.2501C12.8144 17.2501 11.9238 16.3596 11.9238 15.261C11.9238 14.1625 12.8144 13.272 13.9129 13.272C15.0114 13.272 15.902 14.1625 15.902 15.261Z" stroke="#ADB4CC" stroke-width="1.5"/>
  <path d="M9.60876 9L17.4347 9C19.1635 9 20.5651 7.59849 20.5651 5.86963V5.86963C20.5651 4.14077 19.1635 2.73926 17.4347 2.73926L9.60876 2.73926" stroke="#ADB4CC" stroke-width="1.5"/>
  <path d="M11.9563 8.99951L4.13037 8.99951C2.40151 8.99951 1 10.401 1 12.1299V12.1299C1 13.8587 2.40152 15.2603 4.13037 15.2603L9.21723 15.2603" stroke="#ADB4CC" stroke-width="1.5"/>
  <path d="M7.26086 12.9131C7.26086 12.9131 8.56519 14.6087 9.21735 15.2609L7.26086 17.2173" stroke="#ADB4CC" stroke-width="1.5" stroke-linejoin="round"/>
</svg>