<svg width="18" height="18" viewBox="0 0 18 18" fill="none" xmlns="http://www.w3.org/2000/svg">
	<path d="M14.8465 7.00733L16.7213 7.54547C16.8831 7.59076 16.9928 7.74112 16.9866 7.90913V10.0909C16.9928 10.2589 16.8831 10.4092 16.7213 10.4545L14.8612 10.9781C14.7705 11.2391 14.6638 11.4941 14.5415 11.7418L15.4897 13.4508C15.5705 13.5927 15.5465 13.7712 15.4314 13.8871L13.891 15.4288C13.7753 15.5441 13.597 15.5679 13.455 15.487L11.7474 14.538C11.5 14.6604 11.2451 14.7673 10.9844 14.858L10.4467 16.7342C10.4015 16.8961 10.2513 17.006 10.0834 16.9997H7.90344C7.73557 17.006 7.58533 16.8961 7.54008 16.7342L7.01699 14.8726C6.75618 14.7819 6.50132 14.6751 6.25389 14.5526L4.54631 15.5016C4.40447 15.5825 4.22614 15.5585 4.11033 15.4433L2.56989 13.9016C2.45469 13.7858 2.43096 13.6073 2.51174 13.4653L3.45998 11.7563C3.33771 11.5086 3.23091 11.2536 3.14028 10.9927L1.26556 10.4545C1.10377 10.4092 0.994046 10.2589 1.00025 10.0909V7.90913C0.994044 7.74112 1.10377 7.59076 1.26556 7.54547L3.14028 7.02194C3.23092 6.76092 3.33773 6.50585 3.45998 6.25822L2.51174 4.54923C2.43097 4.40728 2.45469 4.22879 2.56989 4.11289L4.11033 2.57118C4.22614 2.45589 4.40459 2.43214 4.54644 2.51299L6.25401 3.46201C6.50143 3.33964 6.75618 3.23275 7.01699 3.14204L7.54008 1.26578C7.58533 1.10386 7.73557 0.994041 7.90344 1.00025H10.0834C10.2513 0.994039 10.4015 1.10386 10.4467 1.26578L10.9698 3.14204C11.2307 3.23276 11.4855 3.33965 11.7329 3.46201L13.4405 2.51299C13.5824 2.43215 13.7607 2.45589 13.8765 2.57118L15.4169 4.0984C15.5321 4.21418 15.5559 4.39266 15.4751 4.53474L14.5268 6.24372C14.6491 6.49135 14.7559 6.74642 14.8465 7.00733Z" stroke="#ADB4CC" stroke-width="1.5" stroke-linejoin="round"/>
	<path d="M11.7967 9.00001C11.7967 10.5501 10.5413 11.8056 8.99404 11.8056C7.44677 11.8056 6.19141 10.5501 6.19141 9.00001C6.19141 7.44997 7.44677 6.19446 8.99404 6.19446C10.5413 6.19446 11.7967 7.44997 11.7967 9.00001Z" stroke="#ADB4CC" stroke-width="1.5"/>
</svg>
