<?xml version="1.0" encoding="UTF-8"?>
<svg width="45" height="45" viewBox="0 0 27 33" version="1.1" xmlns="http://www.w3.org/2000/svg" xmlns:xlink="http://www.w3.org/1999/xlink">
	<path d="M21.6808179,4.85836874 C20.8401981,5.87862331 20.0159392,6.91265638 19.2036922,7.9572386 C20.0252588,9.27825191 20.5038673,10.8513686 20.5038673,12.5416026 C20.5038673,17.2135892 16.8605604,21.000738 12.3662787,21.000738 C7.87199692,21.000738 4.22868997,17.2135892 4.22868997,12.5416026 C4.22868997,7.86940069 7.87199692,4.08225189 12.3662787,4.08225189 C14.1813049,4.08225189 15.8571599,4.7005619 17.2107669,5.74449826 C18.1663272,4.86461212 19.1129823,4.00281025 20.0403771,3.16878067 C18.7399948,2.07037619 17.2012402,1.24452758 15.4893499,0.790052505 C12.5104204,-0.000703992498 9.81936023,0.660663816 9.34655044,0.789621927 C3.99218152,2.25035779 0.290679408,7.27563363 0.403134824,13.0079185 C0.441655464,14.9752294 1.10396195,16.8071235 1.86940434,18.572278 C2.62324911,20.3098756 11.9574628,31.4179268 12.0034391,31.4179268 C15.5972491,27.2512235 21.9904327,20.2276352 23.1083596,17.9862614 C23.880015,16.4391946 24.4118484,14.7646768 24.4377359,12.9885425 C24.4818482,9.93165402 23.4558738,7.07670659 21.6808179,4.85836874" fill="#3FBA8B"></path>
	<path id="id-mmd-logo-check-icon" d="M17.0751282,7.30372148 C16.6027563,7.73158196 16.151333,8.18260357 15.7023743,8.62618053 C14.17764,10.1320675 12.7835267,11.6470534 11.810646,12.979025 C10.2039654,12.0651945 6.88154784,10.4803116 6.81089744,10.577092 C8.76610636,12.8688029 12.7566221,17.545076 12.8361038,17.545076 C15.0751466,9.72426616 25.1857538,0.467673168 25.2403846,0.408025023 C25.2241597,0.388883973 21.3574876,3.42175098 17.0751282,7.30372148" fill="#106B46"></path>
</svg>